<svg width="18" height="22" viewBox="0 0 18 22" fill="none" xmlns="http://www.w3.org/2000/svg">
<path d="M9.90234 22C8.92839 22 7.98307 21.8138 7.06641 21.4414C6.17839 21.0404 5.39062 20.4961 4.70312 19.8086C4.01562 19.1211 3.48568 18.319 3.11328 17.4023L0.363281 10.4414C0.277344 10.1836 0.277344 9.95443 0.363281 9.75391C0.449219 9.52474 0.592448 9.36719 0.792969 9.28125C1.02214 9.16667 1.2513 9.13802 1.48047 9.19531L2.21094 9.45312C2.75521 9.625 3.14193 9.98307 3.37109 10.5273L4.66016 13.75H5.34766V2.96484C5.34766 2.64974 5.44792 2.39193 5.64844 2.19141C5.8776 1.96224 6.14974 1.84766 6.46484 1.84766C6.77995 1.84766 7.05208 1.96224 7.28125 2.19141C7.51042 2.39193 7.625 2.64974 7.625 2.96484V11H8.52734V1.16016C8.52734 0.845052 8.64193 0.572917 8.87109 0.34375C9.10026 0.114583 9.3724 0 9.6875 0C10.0026 0 10.2747 0.114583 10.5039 0.34375C10.7331 0.572917 10.8477 0.845052 10.8477 1.16016V11H11.75V2.53516C11.75 2.22005 11.8646 1.94792 12.0938 1.71875C12.3229 1.48958 12.5951 1.375 12.9102 1.375C13.2253 1.375 13.4831 1.48958 13.6836 1.71875C13.9128 1.94792 14.0273 2.22005 14.0273 2.53516V11H14.9727V5.28516C14.9727 4.97005 15.0729 4.69792 15.2734 4.46875C15.5026 4.23958 15.7747 4.125 16.0898 4.125C16.4049 4.125 16.6771 4.23958 16.9062 4.46875C17.1354 4.69792 17.25 4.97005 17.25 5.28516V14.6523C17.25 15.6836 17.0495 16.6432 16.6484 17.5312C16.276 18.4193 15.7604 19.1927 15.1016 19.8516C14.4427 20.5104 13.6693 21.0404 12.7812 21.4414C11.8932 21.8138 10.9336 22 9.90234 22Z" fill="#FF6D00"/>
</svg>
