<svg width="22" height="17" viewBox="0 0 22 17" fill="none" xmlns="http://www.w3.org/2000/svg">
<path d="M19.25 5.34766C18.8203 5.34766 18.4479 5.47656 18.1328 5.73438C17.8464 5.96354 17.6315 6.26432 17.4883 6.63672C17.3737 6.98047 17.3737 7.3099 17.4883 7.625L14.2227 10.8906C13.9076 10.8047 13.5924 10.8047 13.2773 10.8906L10.957 8.57031C11.043 8.22656 11.0286 7.88281 10.9141 7.53906C10.7995 7.16667 10.5846 6.86589 10.2695 6.63672C9.98307 6.37891 9.61068 6.25 9.15234 6.25C8.72266 6.25 8.35026 6.37891 8.03516 6.63672C7.7487 6.86589 7.54818 7.16667 7.43359 7.53906C7.31901 7.88281 7.30469 8.22656 7.39062 8.57031L3.22266 12.7383C2.87891 12.6237 2.53516 12.638 2.19141 12.7812C1.84766 12.8958 1.54688 13.1107 1.28906 13.4258C1.03125 13.7122 0.902344 14.0703 0.902344 14.5C0.902344 15.0156 1.07422 15.4596 1.41797 15.832C1.79036 16.1758 2.23438 16.3477 2.75 16.3477C3.17969 16.3477 3.53776 16.2188 3.82422 15.9609C4.13932 15.7031 4.35417 15.4023 4.46875 15.0586C4.61198 14.7148 4.6263 14.3711 4.51172 14.0273L8.67969 9.85938C8.99479 9.94531 9.3099 9.94531 9.625 9.85938L11.9883 12.1797C11.8737 12.5234 11.8737 12.8815 11.9883 13.2539C12.1029 13.5977 12.3034 13.8984 12.5898 14.1562C12.9049 14.3854 13.2917 14.5 13.75 14.5C14.1797 14.5 14.5378 14.3854 14.8242 14.1562C15.1393 13.8984 15.3542 13.5977 15.4688 13.2539C15.612 12.8815 15.6263 12.5234 15.5117 12.1797L18.7773 8.95703C19.1211 9.04297 19.4648 9.02865 19.8086 8.91406C20.1523 8.79948 20.4531 8.59896 20.7109 8.3125C20.9688 7.9974 21.0977 7.61068 21.0977 7.15234C21.0977 6.66536 20.9115 6.25 20.5391 5.90625C20.1953 5.53385 19.7656 5.34766 19.25 5.34766ZM13.75 6.25L14.6094 4.35938L16.5 3.5L14.6094 2.64062L13.75 0.75L12.8906 2.64062L11 3.5L12.8906 4.35938L13.75 6.25ZM3.22266 8.09766L3.65234 6.25L5.5 5.77734L3.65234 5.34766L3.22266 3.5L2.75 5.34766L0.902344 5.77734L2.75 6.25L3.22266 8.09766Z" fill="#20C588"/>
</svg>
